#!OML:ASF F:\VICON\USERDATA\INSTALL\rory3\rory3.ASF
:FULLY-SPECIFIED
:DEGREES
355
root 1.09435 17.9024 38.4357 -4.64719 -5.61748 0.825355
lowerback 10.5693 1.25617 -1.37118
upperback 1.25715 1.54155 0.680588
thorax -4.66926 0.791012 1.25933
lowerneck -15.8031 -2.40237 -2.03753
upperneck 20.6661 -3.19996 1.61439
head 9.16388 -1.48119 0.492366
rclavicle 8.83349e-015 -3.57812e-015
rhumerus -27.8242 -18.2079 -80.2946
rradius 26.7794
rwrist 6.74374
rhand -17.2453 20.6067
rfingers 7.12502
rthumb 8.99865 -9.18138
lclavicle 8.83349e-015 -3.57812e-015
lhumerus -31.859 4.98002 82.7129
lradius 21.6125
lwrist 5.95652
lhand -29.63 16.9949
lfingers 7.12502
lthumb -2.96018 46.9541
rfemur -16.4857 -1.11299 20.1205
rtibia 74.2749
rfoot 1.85207 -3.56611
rtoes 14.7319
lfemur -9.82676 -2.22094 -24.0611
ltibia 26.828
lfoot -9.28886 0.122441
ltoes 2.01091
356
root 1.10311 17.8937 38.6015 -4.73035 -5.59045 0.931416
lowerback 10.5477 1.13126 -1.5296
upperback 1.34247 1.35813 0.690794
thorax -4.56579 0.702042 1.38711
lowerneck -15.7216 -2.48559 -2.50452
upperneck 20.6972 -3.35045 2.26235
head 9.18344 -1.51752 0.773456
rclavicle -1.35049e-014 8.74653e-015
rhumerus -27.8266 -18.7069 -80.1565
rradius 26.5028
rwrist 6.81234
rhand -17.3078 20.9903
rfingers 7.12502
rthumb 8.93837 -8.80036
lclavicle -1.35049e-014 8.74653e-015
lhumerus -31.2959 4.49443 82.773
lradius 21.8633
lwrist 6.88801
lhand -29.7231 17.7669
lfingers 7.12502
lthumb -3.05001 47.7249
rfemur -17.5562 -1.32763 20.0212
rtibia 74.3752
rfoot 0.65391 -3.15806
rtoes 13.8009
lfemur -9.3128 -2.3338 -24.3409
ltibia 27.2718
lfoot -9.97085 0.610653
ltoes 1.15673
357
root 1.11171 17.8823 38.7567 -4.64131 -5.65396 0.7921
lowerback 10.6303 1.02464 -1.4463
upperback 1.24499 1.22957 0.782618
thorax -4.70931 0.639506 1.45257
lowerneck -15.4181 -2.41699 -2.49207
upperneck 20.6787 -3.24659 2.18182
head 9.11663 -1.47988 0.760046
rclavicle -1.4064e-014 6.16232e-015
rhumerus -28.0704 -19.233 -79.8788
rradius 26.31
rwrist 6.87726
rhand -17.3321 22.0097
rfingers 7.12502
rthumb 8.91492 -7.78201
lclavicle -1.4064e-014 6.16232e-015
lhumerus -30.9599 4.23816 82.7435
lradius 22.0214
lwrist 7.12137
lhand -29.3397 18.6533
lfingers 7.12502
lthumb -2.67982 48.6162
rfemur -18.8732 -1.40446 20.2673
rtibia 74.3085
rfoot -0.311669 -2.88441
rtoes 11.5941
lfemur -9.05161 -2.36042 -24.329
ltibia 27.6742
lfoot -10.501 0.952948
ltoes 1.1226
358
root 1.11634 17.8679 38.9127 -4.60417 -5.61665 0.703073
lowerback 10.5408 0.917505 -1.46143
upperback 1.29107 1.09251 0.900976
thorax -4.60881 0.572035 1.60604
lowerneck -15.3295 -2.24595 -2.08835
upperneck 20.784 -2.96751 1.54862
head 9.11239 -1.3875 0.512039
rclavicle 3.57812e-015 7.55382e-015
rhumerus -28.0993 -19.6259 -79.6865
rradius 26.3134
rwrist 7.05149
rhand -17.5273 22.2561
rfingers 7.12502
rthumb 8.72653 -7.54349
lclavicle 3.57812e-015 7.55382e-015
lhumerus -30.502 4.00776 82.7531
lradius 22.3108
lwrist 7.06429
lhand -28.8981 19.5666
lfingers 7.12502
lthumb -2.25325 49.5345
rfemur -20.1596 -1.54949 20.5111
rtibia 74.0961
rfoot -1.32726 -2.7156
rtoes 9.42059
lfemur -8.7683 -2.34248 -24.3372
ltibia 28.0811
lfoot -11.0001 1.11649
ltoes 1.04042
359
root 1.11962 17.854 39.0807 -4.69452 -5.53942 0.883503
lowerback 10.3556 0.789803 -1.76631
upperback 1.46127 0.891731 0.920775
thorax -4.32482 0.474234 1.83009
lowerneck -15.3243 -2.09874 -1.82783
upperneck 20.7398 -2.77289 1.31108
head 9.08448 -1.30227 0.411898
rclavicle -1.49337e-014 1.23246e-014
rhumerus -28.222 -19.7874 -79.6486
rradius 26.5837
rwrist 6.73101
rhand -17.6628 22.2444
rfingers 7.12502
rthumb 8.5958 -7.56059
lclavicle -1.49337e-014 1.23246e-014
lhumerus -29.9222 3.75516 82.686
lradius 22.6101
lwrist 7.59582
lhand -29.0351 19.254
lfingers 7.12502
lthumb -2.38564 49.2204
rfemur -21.1528 -1.78866 20.401
rtibia 73.6961
rfoot -2.409 -2.55832
rtoes 9.40821
lfemur -8.28355 -2.21474 -24.66
ltibia 28.5185
lfoot -11.6863 1.33583
ltoes 0.0138691
360
root 1.12746 17.8447 39.2413 -4.64582 -5.45466 0.680537
lowerback 10.4775 0.634871 -1.56099
upperback 1.48393 0.711734 1.01648
thorax -4.35948 0.382676 1.8386
lowerneck -15.5878 -2.1466 -2.13902
upperneck 20.9792 -2.84537 1.67442
head 9.22802 -1.31863 0.575749
rclavicle -6.44808e-015 8.34896e-015
rhumerus -28.6206 -19.6168 -79.6643
rradius 27.169
rwrist 6.07285
rhand -17.6207 21.708
rfingers 7.12502
rthumb 8.6364 -8.09533
lclavicle -6.44808e-015 8.34896e-015
lhumerus -29.3116 3.22767 82.7438
lradius 22.556
lwrist 7.49017
lhand -29.577 18.7915
lfingers 7.12502
lthumb -2.90895 48.7514
rfemur -22.2722 -2.06111 20.7442
rtibia 73.1222
rfoot -3.58652 -2.50745
rtoes 9.06359
lfemur -7.85943 -2.10445 -24.566
ltibia 28.8252
lfoot -12.406 1.51735
ltoes -0.572778
361
root 1.1364 17.8324 39.4015 -4.57196 -5.2531 0.526899
lowerback 10.7508 0.527043 -1.30015
upperback 1.36464 0.598258 1.06595
thorax -4.62903 0.325839 1.75781
lowerneck -16.0371 -2.39771 -2.62004
upperneck 21.7292 -3.16196 2.0294
head 9.59533 -1.46013 0.732141
rclavicle -3.57812e-015 -1.47101e-014
rhumerus -29.2423 -19.5222 -79.55
rradius 27.7467
rwrist 5.46317
rhand -17.4478 21.0114
rfingers 7.12502
rthumb 8.8032 -8.78499
lclavicle -3.57812e-015 -1.47101e-014
lhumerus -28.958 2.21879 83.0238
lradius 22.2652
lwrist 5.74441
lhand -30.6578 17.3422
lfingers 7.12502
lthumb -3.95269 47.2853
rfemur -23.3471 -2.36729 21.0216
rtibia 72.3645
rfoot -4.84908 -2.66029
rtoes 8.51772
lfemur -7.45873 -2.16669 -24.5224
ltibia 29.0835
lfoot -13.0979 1.60369
ltoes 0.378055
362
root 1.14348 17.8129 39.5669 -4.53614 -5.01899 1.02334
lowerback 10.8361 0.420008 -1.75654
upperback 1.18674 0.396118 0.958419
thorax -4.85678 0.237334 1.93278
lowerneck -16.1533 -2.62084 -3.34037
upperneck 22.509 -3.44504 2.61611
head 9.92633 -1.58211 1.01812
rclavicle -8.1626e-015 -5.1684e-015
rhumerus -29.9407 -19.2098 -79.4455
rradius 28.0381
rwrist 4.5159
rhand -17.4385 21.4902
rfingers 7.12502
rthumb 8.81224 -8.30581
lclavicle -8.1626e-015 -5.1684e-015
lhumerus -28.7688 1.66348 83.0556
lradius 22.6683
lwrist 6.04015
lhand -30.6381 18.5529
lfingers 7.12502
lthumb -3.93371 48.4963
rfemur -24.362 -2.71598 20.5457
rtibia 71.5151
rfoot -6.08678 -2.90026
rtoes 8.46707
lfemur -7.05622 -2.35605 -25.2156
ltibia 29.3394
lfoot -13.643 1.81884
ltoes 0.6157
363
root 1.14013 17.7835 39.7302 -4.60495 -5.01325 1.17153
lowerback 10.8111 0.314957 -2.09466
upperback 1.20823 0.220286 1.02599
thorax -4.81364 0.156989 2.22064
lowerneck -16.0801 -2.64468 -3.63424
upperneck 22.6286 -3.45879 2.82499
head 9.96549 -1.5904 1.13955
rclavicle -4.8578e-015 -7.55382e-015
rhumerus -30.101 -18.72 -79.4781
rradius 27.8091
rwrist 3.39719
rhand -17.8661 22.6371
rfingers 7.12502
rthumb 8.39952 -7.1759
lclavicle -4.8578e-015 -7.55382e-015
lhumerus -28.328 0.750875 83.2657
lradius 22.4939
lwrist 6.54577
lhand -31.7182 16.3645
lfingers 7.12502
lthumb -4.97662 46.2861
rfemur -25.2695 -2.73401 20.5822
rtibia 70.5505
rfoot -7.19527 -3.39632
rtoes 7.46998
lfemur -6.56975 -2.24577 -25.4489
ltibia 29.6133
lfoot -14.2765 1.95451
ltoes 0.837772
364
root 1.13597 17.767 39.8893 -4.71687 -5.08778 1.06257
lowerback 10.8739 0.279448 -2.07949
upperback 1.25731 0.176291 1.07518
thorax -4.79492 0.134605 2.27012
lowerneck -15.8605 -2.56964 -3.36267
upperneck 22.4529 -3.38966 2.66662
head 9.85047 -1.55613 1.04975
rclavicle -7.96381e-015 1.11319e-014
rhumerus -30.1678 -19.0891 -79.3613
rradius 27.399
rwrist 3.38546
rhand -17.975 22.9057
rfingers 7.12502
rthumb 8.29445 -6.91143
lclavicle -7.96381e-015 1.11319e-014
lhumerus -27.6178 -0.193918 83.1652
lradius 23.0997
lwrist 9.08223
lhand -29.7245 19.8688
lfingers 7.12502
lthumb -3.05138 49.8267
rfemur -26.021 -2.67808 20.9333
rtibia 69.3631
rfoot -8.21366 -4.06385
rtoes 5.52823
lfemur -5.97108 -2.04745 -25.3867
ltibia 29.8231
lfoot -14.9491 2.15945
ltoes 0.486648
365
root 1.1397 17.7482 40.0467 -4.67671 -4.94367 1.11857
lowerback 11.0071 0.187652 -2.1265
upperback 1.07803 0.0466517 1.08705
thorax -5.05013 0.0770363 2.32982
lowerneck -15.4143 -2.58398 -3.28795
upperneck 22.316 -3.40532 2.5231
head 9.7142 -1.57838 0.989469
rclavicle 1.19892e-014 -9.93923e-015
rhumerus -30.7141 -19.3642 -79.0701
rradius 27.3882
rwrist 3.66785
rhand -18.0998 23.2341
rfingers 7.12502
rthumb 8.17402 -6.5878
lclavicle 1.19892e-014 -9.93923e-015
lhumerus -27.5108 -1.54814 83.4632
lradius 23.1443
lwrist 8.52664
lhand -30.5182 18.1269
lfingers 7.12502
lthumb -3.81789 48.0725
rfemur -26.8863 -2.85372 21.0146
rtibia 68.0276
rfoot -9.08345 -4.62257
rtoes 5.10507
lfemur -5.53215 -2.09014 -25.549
ltibia 30.0243
lfoot -15.5973 2.29247
ltoes 0.914064
366
root 1.14148 17.7326 40.2122 -4.62555 -4.69346 1.13894
lowerback 10.9948 0.051533 -2.20728
upperback 1.05265 -0.139797 1.1608
thorax -5.05908 -0.012045 2.48118
lowerneck -15.2352 -2.64211 -3.56487
upperneck 22.2057 -3.47694 2.75904
head 9.65391 -1.61033 1.11021
rclavicle 1.51573e-014 -2.78299e-015
rhumerus -31.0712 -19.2798 -78.8647
rradius 27.5476
rwrist 3.96575
rhand -17.8842 23.4656
rfingers 7.12502
rthumb 8.38206 -6.34809
lclavicle 1.51573e-014 -2.78299e-015
lhumerus -27.0792 -1.88228 83.4307
lradius 23.4619
lwrist 8.49791
lhand -29.9102 17.9445
lfingers 7.12502
lthumb -3.23074 47.8998
rfemur -27.5949 -3.06424 21.1158
rtibia 66.4418
rfoot -9.81011 -5.24752
rtoes 4.49691
lfemur -5.00301 -2.05542 -25.6482
ltibia 30.0441
lfoot -16.2023 2.17151
ltoes 1.70021
367
root 1.13733 17.7205 40.378 -4.67312 -4.65352 1.16426
lowerback 10.8228 -0.0244457 -2.37811
upperback 1.42323 -0.253241 1.23576
thorax -4.56684 -0.0760034 2.66906
lowerneck -15.9302 -2.64323 -3.67008
upperneck 22.1711 -3.45928 2.89914
head 9.77653 -1.58778 1.17186
rclavicle -4.89507e-015 -7.95139e-015
rhumerus -30.519 -19.4468 -78.8984
rradius 27.3947
rwrist 4.94384
rhand -17.8783 22.6491
rfingers 7.12502
rthumb 8.38775 -7.16439
lclavicle -4.89507e-015 -7.95139e-015
lhumerus -25.9158 -1.97249 83.2636
lradius 23.5823
lwrist 8.37997
lhand -29.2459 17.9966
lfingers 7.12502
lthumb -2.58918 47.9606
rfemur -28.1539 -3.04613 21.2715
rtibia 64.664
rfoot -10.5234 -6.0166
rtoes 2.98086
lfemur -4.27532 -1.94056 -25.7257
ltibia 29.8798
lfoot -16.5432 2.2395
ltoes 1.48084
368
root 1.13527 17.7132 40.5371 -4.65203 -4.67917 1.30172
lowerback 10.8455 -0.0806933 -2.60076
upperback 1.53945 -0.35396 1.24314
thorax -4.44992 -0.125439 2.8167
lowerneck -16.4439 -2.46642 -3.14816
upperneck 22.2705 -3.22202 2.4364
head 9.88184 -1.48198 0.949815
rclavicle -8.07563e-015 5.96354e-015
rhumerus -30.4659 -19.3084 -79.0141
rradius 27.499
rwrist 4.97321
rhand -17.2173 22.5163
rfingers 7.12502
rthumb 9.02563 -7.27064
lclavicle -8.07563e-015 5.96354e-015
lhumerus -25.0692 -2.30342 83.1454
lradius 23.4845
lwrist 8.59444
lhand -29.3292 16.9154
lfingers 7.12502
lthumb -2.66963 46.8784
rfemur -28.739 -2.87687 21.2814
rtibia 62.7065
rfoot -11.0707 -6.79599
rtoes 2.24254
lfemur -3.56388 -1.75109 -25.941
ltibia 29.458
lfoot -16.7154 2.53765
ltoes -0.62631
369
root 1.13808 17.7092 40.7031 -4.54353 -4.59236 1.42848
lowerback 11.0297 -0.171519 -2.68984
upperback 1.20573 -0.491354 1.23167
thorax -4.89223 -0.179632 2.88069
lowerneck -15.9207 -2.05998 -2.29783
upperneck 22.4136 -2.67663 1.54276
head 9.79038 -1.26505 0.572927
rclavicle 1.2424e-015 1.55052e-014
rhumerus -31.4204 -19.1058 -78.8221
rradius 27.7179
rwrist 4.30873
rhand -16.4568 23.9257
rfingers 7.12502
rthumb 9.75949 -5.82814
lclavicle 1.2424e-015 1.55052e-014
lhumerus -25.1623 -2.90631 83.2246
lradius 23.5982
lwrist 9.67293
lhand -30.2248 14.439
lfingers 7.12502
lthumb -3.53457 44.3895
rfemur -29.2451 -2.86003 21.2409
rtibia 60.5812
rfoot -11.3616 -7.56233
rtoes 1.83056
lfemur -2.79759 -1.5554 -26.1647
ltibia 28.8426
lfoot -16.9454 2.7237
ltoes -2.4224
